<?xml version="1.0" encoding="UTF-8" standalone="no"?>
<svg
   xmlns:dc="http://purl.org/dc/elements/1.1/"
   xmlns:cc="http://creativecommons.org/ns#"
   xmlns:rdf="http://www.w3.org/1999/02/22-rdf-syntax-ns#"
   xmlns:svg="http://www.w3.org/2000/svg"
   xmlns="http://www.w3.org/2000/svg"
   xmlns:sodipodi="http://sodipodi.sourceforge.net/DTD/sodipodi-0.dtd"
   xmlns:inkscape="http://www.inkscape.org/namespaces/inkscape"
   viewBox="0 0 1000 1000"
   stroke-miterlimit="1.414"
   version="1.1"
   id="svg16"
   sodipodi:docname="google-sheets.svg"
   width="1000"
   height="1000"
   style="clip-rule:evenodd;fill-rule:evenodd;stroke-linejoin:round;stroke-miterlimit:1.41400003"
   inkscape:version="0.92.1 r15371">
  <metadata
     id="metadata22">
    <rdf:RDF>
      <cc:Work
         rdf:about="">
        <dc:format>image/svg+xml</dc:format>
        <dc:type
           rdf:resource="http://purl.org/dc/dcmitype/StillImage" />
        <dc:title></dc:title>
      </cc:Work>
    </rdf:RDF>
  </metadata>
  <defs
     id="defs20" />
  <sodipodi:namedview
     pagecolor="#ffffff"
     bordercolor="#666666"
     borderopacity="1"
     objecttolerance="10"
     gridtolerance="10"
     guidetolerance="10"
     inkscape:pageopacity="0"
     inkscape:pageshadow="2"
     inkscape:window-width="3840"
     inkscape:window-height="2050"
     id="namedview18"
     showgrid="false"
     inkscape:zoom="1.9032258"
     inkscape:cx="386.74198"
     inkscape:cy="576.43591"
     inkscape:window-x="-12"
     inkscape:window-y="-12"
     inkscape:window-maximized="1"
     inkscape:current-layer="svg16" />
  <path
     d="M 18.998,983.323 H 9.981 V 986 h 6.395 c -0.316,3.753 -3.438,5.35 -6.384,5.35 -3.77,0 -7.059,-2.965 -7.059,-7.122 0,-4.05 3.135,-7.169 7.067,-7.169 3.034,0 4.821,1.934 4.821,1.934 l 1.874,-1.941 c 0,0 -2.405,-2.675 -6.791,-2.675 -5.584,0 -9.904,4.712 -9.904,9.803 0,4.99 4.063,9.853 10.047,9.853 5.262,0 9.114,-3.606 9.114,-8.935 0,-1.126 -0.163,-1.775 -0.163,-1.775 m 7.423,0.545 c 1.819,0 3.543,1.472 3.543,3.841 0,2.319 -1.716,3.833 -3.551,3.833 -2.017,0 -3.607,-1.614 -3.607,-3.852 0,-2.189 1.571,-3.822 3.615,-3.822 m -0.037,-2.481 c -3.7,0 -6.351,2.89 -6.351,6.265 0,3.423 2.572,6.37 6.395,6.37 3.461,0 6.295,-2.645 6.295,-6.298 0,-4.183 -3.298,-6.337 -6.339,-6.337 m 13.85,2.481 c 1.819,0 3.543,1.472 3.543,3.841 0,2.319 -1.717,3.833 -3.552,3.833 -2.016,0 -3.607,-1.614 -3.607,-3.852 0,-2.189 1.572,-3.822 3.616,-3.822 m -0.037,-2.481 c -3.7,0 -6.351,2.89 -6.351,6.265 0,3.423 2.572,6.37 6.394,6.37 3.461,0 6.296,-2.645 6.296,-6.298 0,-4.183 -3.297,-6.337 -6.339,-6.337 m 13.794,2.483 c 1.665,0 3.375,1.421 3.375,3.849 0,2.467 -1.707,3.828 -3.412,3.828 -1.81,0 -3.494,-1.469 -3.494,-3.804 0,-2.427 1.749,-3.873 3.531,-3.873 m -0.246,-2.477 c -3.395,0 -6.065,2.974 -6.065,6.312 0,3.803 3.095,6.325 6.007,6.325 1.801,0 2.758,-0.715 3.465,-1.535 v 1.245 c 0,2.181 -1.324,3.484 -3.322,3.484 -1.929,0 -2.897,-1.434 -3.233,-2.248 l -2.429,1.016 c 0.862,1.82 2.596,3.721 5.683,3.721 3.376,0 5.95,-2.128 5.95,-6.587 v -11.353 h -2.649 v 1.07 c -0.814,-0.876 -1.928,-1.45 -3.407,-1.45 m 17.944,2.414 c 1.155,0 1.985,0.614 2.338,1.351 l -5.657,2.364 c -0.244,-1.831 1.49,-3.715 3.319,-3.715 m -0.11,-2.429 c -3.203,0 -5.893,2.547 -5.893,6.309 0,3.978 2.998,6.34 6.2,6.34 2.674,0 4.314,-1.463 5.293,-2.775 L 74.995,989.8 c -0.566,0.88 -1.514,1.74 -3.095,1.74 -1.776,0 -2.593,-0.972 -3.099,-1.916 l 8.472,-3.514 -0.44,-1.031 c -0.818,-2.017 -2.727,-3.701 -5.254,-3.701 m -9.932,-6.349 h 2.782 v 18.623 h -2.782 z"
     id="path2"
     inkscape:connector-curvature="0"
     style="fill:#ffffff;fill-rule:nonzero" />
  <g
     id="g4505"
     transform="translate(133.67003,-0.49778525)">
    <path
       style="fill:#23a566;fill-rule:nonzero;stroke-width:11.54236031"
       inkscape:connector-curvature="0"
       id="path4"
       d="m 725.10694,942.11427 a 57.711803,57.711803 0 0 1 -57.7118,57.71181 H 65.264803 A 57.711803,57.711803 0 0 1 7.553,942.11427 V 59.123684 A 57.711803,57.711803 0 0 1 65.264803,1.4118788 H 452.41866 L 725.10694,280.71392 Z" />
    <path
       style="fill:#1c8f5a;fill-rule:nonzero;stroke-width:11.54236031"
       inkscape:connector-curvature="0"
       id="path6"
       d="M 482.47497,273.62691 725.10694,505.43215 724.39132,280.35611 Z" />
    <path
       style="fill:#8ed1b1;fill-rule:nonzero;stroke-width:11.54236031"
       inkscape:connector-curvature="0"
       id="path8"
       d="M 725.10694,280.34457 H 509.64569 a 57.711803,57.711803 0 0 1 -57.7118,-57.71181 V 1.1694905 Z" />
    <path
       style="fill:#ffffff;stroke-width:11.54236031"
       inkscape:connector-curvature="0"
       id="path10"
       d="m 203.77313,595.84346 h 332.80089 v 34.62708 H 203.77313 Z m 0,88.49528 h 332.80089 v 34.62708 H 203.77313 Z" />
    <path
       style="fill:#ffffff;stroke-width:11.54236031"
       inkscape:connector-curvature="0"
       id="path12"
       d="M 552.92955,815.14831 H 179.73039 V 491.9622 H 552.92955 Z M 225.89983,538.13166 V 768.97888 H 506.76011 V 538.13166 Z" />
    <path
       style="fill:#ffffff;stroke-width:11.54236031"
       inkscape:connector-curvature="0"
       id="path14"
       d="m 343.23949,516.9745 h 46.16942 v 275.0891 h -46.16942 z" />
  </g>
</svg>
